<mxfile host="65bd71144e" modified="2021-03-10T09:32:22.335Z" agent="5.0 (Windows NT 10.0; Win64; x64) AppleWebKit/537.36 (KHTML, like Gecko) Code/1.54.1 Chrome/87.0.4280.141 Electron/11.3.0 Safari/537.36" etag="4oPCg2d0Zlta5_voaaEl" version="14.2.4" type="embed">
    <diagram id="tXSAp7dBCKhaJgt51Fwi" name="Page-1">
        <mxGraphModel dx="801" dy="388" grid="1" gridSize="10" guides="1" tooltips="1" connect="1" arrows="1" fold="1" page="1" pageScale="1" pageWidth="827" pageHeight="1169" math="0" shadow="0">
            <root>
                <mxCell id="0"/>
                <mxCell id="1" parent="0"/>
                <mxCell id="8" value="Securite" style="swimlane;fontStyle=1;align=center;verticalAlign=top;childLayout=stackLayout;horizontal=1;startSize=26;horizontalStack=0;resizeParent=1;resizeParentMax=0;resizeLast=0;collapsible=1;marginBottom=0;" parent="1" vertex="1">
                    <mxGeometry x="240" width="200" height="240" as="geometry">
                        <mxRectangle x="40" y="80" width="80" height="26" as="alternateBounds"/>
                    </mxGeometry>
                </mxCell>
                <mxCell id="10" value="" style="line;strokeWidth=1;fillColor=none;align=left;verticalAlign=middle;spacingTop=-1;spacingLeft=3;spacingRight=3;rotatable=0;labelPosition=right;points=[];portConstraint=eastwest;" parent="8" vertex="1">
                    <mxGeometry y="26" width="200" height="8" as="geometry"/>
                </mxCell>
                <mxCell id="11" value="+ __construct() : void&#10;+ formLogin() : void&#10;+ login() : void&#10;+ logout() : void" style="text;strokeColor=none;fillColor=none;align=left;verticalAlign=top;spacingLeft=4;spacingRight=4;overflow=hidden;rotatable=0;points=[[0,0.5],[1,0.5]];portConstraint=eastwest;whiteSpace=wrap;" parent="8" vertex="1">
                    <mxGeometry y="34" width="200" height="206" as="geometry"/>
                </mxCell>
                <mxCell id="13" value="Profil" style="swimlane;fontStyle=1;align=center;verticalAlign=top;childLayout=stackLayout;horizontal=1;startSize=26;horizontalStack=0;resizeParent=1;resizeParentMax=0;resizeLast=0;collapsible=1;marginBottom=0;" parent="1" vertex="1">
                    <mxGeometry x="560" width="240" height="320" as="geometry">
                        <mxRectangle x="240" width="80" height="26" as="alternateBounds"/>
                    </mxGeometry>
                </mxCell>
                <mxCell id="14" value="" style="line;strokeWidth=1;fillColor=none;align=left;verticalAlign=middle;spacingTop=-1;spacingLeft=3;spacingRight=3;rotatable=0;labelPosition=right;points=[];portConstraint=eastwest;" parent="13" vertex="1">
                    <mxGeometry y="26" width="240" height="8" as="geometry"/>
                </mxCell>
                <mxCell id="15" value="+ __construct() : void&#10;+ display() : void&#10;+ displayGestionPersonnel() : void&#10;+ displayPersonnelSoignant() : void&#10;+ displayPersonnelEntretien() : void&#10;+ edit() : void&#10;+ editListeProfilsSoignant() : void&#10;+ editListeProfilsEntretien() : void&#10;+ editListeEspecesSoignant() : void&#10;+ editListeEnclosEntretien() : void&#10;+ editGestionPersonnel() : void&#10;+ editPersonnelSoignant() : void&#10;+ editPersonnelEntretien() : void&#10;+ addForm() : void&#10;+ addDB() : void&#10;+ editForm() : void&#10;+ editDB() : void&#10;+ delDB() : void&#10;" style="text;strokeColor=none;fillColor=none;align=left;verticalAlign=top;spacingLeft=4;spacingRight=4;overflow=hidden;rotatable=0;points=[[0,0.5],[1,0.5]];portConstraint=eastwest;whiteSpace=wrap;" parent="13" vertex="1">
                    <mxGeometry y="34" width="240" height="286" as="geometry"/>
                </mxCell>
                <mxCell id="77" value="Class" style="swimlane;fontStyle=1;align=center;verticalAlign=top;childLayout=stackLayout;horizontal=1;startSize=26;horizontalStack=0;resizeParent=1;resizeParentMax=0;resizeLast=0;collapsible=1;marginBottom=0;" vertex="1" parent="1">
                    <mxGeometry width="200" height="240" as="geometry">
                        <mxRectangle x="240" width="80" height="26" as="alternateBounds"/>
                    </mxGeometry>
                </mxCell>
                <mxCell id="78" value="" style="line;strokeWidth=1;fillColor=none;align=left;verticalAlign=middle;spacingTop=-1;spacingLeft=3;spacingRight=3;rotatable=0;labelPosition=right;points=[];portConstraint=eastwest;" vertex="1" parent="77">
                    <mxGeometry y="26" width="200" height="8" as="geometry"/>
                </mxCell>
                <mxCell id="79" value="+ __construct() : void&#10;+ display() : void&#10;+ edit() : void&#10;+ addForm() : void&#10;+ addDB() : void&#10;+ editForm() : void&#10;+ editDB() : void&#10;+ delDB() : void&#10;" style="text;strokeColor=none;fillColor=none;align=left;verticalAlign=top;spacingLeft=4;spacingRight=4;overflow=hidden;rotatable=0;points=[[0,0.5],[1,0.5]];portConstraint=eastwest;whiteSpace=wrap;" vertex="1" parent="77">
                    <mxGeometry y="34" width="200" height="206" as="geometry"/>
                </mxCell>
                <mxCell id="80" value="Espece" style="swimlane;fontStyle=1;align=center;verticalAlign=top;childLayout=stackLayout;horizontal=1;startSize=26;horizontalStack=0;resizeParent=1;resizeParentMax=0;resizeLast=0;collapsible=1;marginBottom=0;" vertex="1" parent="1">
                    <mxGeometry y="360" width="240" height="280" as="geometry">
                        <mxRectangle x="240" width="80" height="26" as="alternateBounds"/>
                    </mxGeometry>
                </mxCell>
                <mxCell id="81" value="" style="line;strokeWidth=1;fillColor=none;align=left;verticalAlign=middle;spacingTop=-1;spacingLeft=3;spacingRight=3;rotatable=0;labelPosition=right;points=[];portConstraint=eastwest;" vertex="1" parent="80">
                    <mxGeometry y="26" width="240" height="8" as="geometry"/>
                </mxCell>
                <mxCell id="82" value="+ __construct() : void&#10;+ display() : void&#10;+ displayListEspecesCohabitables() : void&#10;+ edit() : void&#10;+ editListEspecesCohabitables() : void&#10;+ addForm() : void&#10;+ addFormEspeceCohabitable() : void&#10;+ addDB() : void&#10;+ addDBEspeceCohabitable() : void&#10;+ editForm() : void&#10;+ editFormEspeceCohabitable() : void&#10;+ editDB() : void&#10;+ editDBEspeceCohabitable() : void&#10;+ delDB() : void&#10;+ delDBEspeceCohabitable() : void&#10;" style="text;strokeColor=none;fillColor=none;align=left;verticalAlign=top;spacingLeft=4;spacingRight=4;overflow=hidden;rotatable=0;points=[[0,0.5],[1,0.5]];portConstraint=eastwest;whiteSpace=wrap;" vertex="1" parent="80">
                    <mxGeometry y="34" width="240" height="246" as="geometry"/>
                </mxCell>
                <mxCell id="84" value="Animal" style="swimlane;fontStyle=1;align=center;verticalAlign=top;childLayout=stackLayout;horizontal=1;startSize=26;horizontalStack=0;resizeParent=1;resizeParentMax=0;resizeLast=0;collapsible=1;marginBottom=0;" vertex="1" parent="1">
                    <mxGeometry x="280" y="360" width="240" height="280" as="geometry">
                        <mxRectangle x="240" width="80" height="26" as="alternateBounds"/>
                    </mxGeometry>
                </mxCell>
                <mxCell id="85" value="" style="line;strokeWidth=1;fillColor=none;align=left;verticalAlign=middle;spacingTop=-1;spacingLeft=3;spacingRight=3;rotatable=0;labelPosition=right;points=[];portConstraint=eastwest;" vertex="1" parent="84">
                    <mxGeometry y="26" width="240" height="8" as="geometry"/>
                </mxCell>
                <mxCell id="86" value="+ __construct() : void&#10;+ display() : void&#10;+ displayAnimalParents() : void&#10;+ displayEtatParc() : void&#10;+ displayListeAnimauxEspece() : void&#10;+ edit() : void&#10;+ editAnimalParents() : void&#10;+ editEtatParc() : void&#10;+ editListeAnimauxEspece() : void&#10;+ addForm() : void&#10;+ addFormAnimalParent() : void&#10;+ addDB() : void&#10;+ addDBAnimalParent() : void&#10;+ editForm() : void&#10;+ editDB() : void&#10;+ delDB() : void&#10;" style="text;strokeColor=none;fillColor=none;align=left;verticalAlign=top;spacingLeft=4;spacingRight=4;overflow=hidden;rotatable=0;points=[[0,0.5],[1,0.5]];portConstraint=eastwest;whiteSpace=wrap;" vertex="1" parent="84">
                    <mxGeometry y="34" width="240" height="246" as="geometry"/>
                </mxCell>
                <mxCell id="87" value="Enclos" style="swimlane;fontStyle=1;align=center;verticalAlign=top;childLayout=stackLayout;horizontal=1;startSize=26;horizontalStack=0;resizeParent=1;resizeParentMax=0;resizeLast=0;collapsible=1;marginBottom=0;" vertex="1" parent="1">
                    <mxGeometry y="680" width="240" height="280" as="geometry">
                        <mxRectangle x="240" width="80" height="26" as="alternateBounds"/>
                    </mxGeometry>
                </mxCell>
                <mxCell id="88" value="" style="line;strokeWidth=1;fillColor=none;align=left;verticalAlign=middle;spacingTop=-1;spacingLeft=3;spacingRight=3;rotatable=0;labelPosition=right;points=[];portConstraint=eastwest;" vertex="1" parent="87">
                    <mxGeometry y="26" width="240" height="8" as="geometry"/>
                </mxCell>
                <mxCell id="89" value="+ __construct() : void&#10;+ display() : void&#10;+ displayListeObjetsPresents() : void&#10;+ displayEspecesVivant() : void&#10;+ displayAnimauxOccupant() : void&#10;+ displayOccupation() : void&#10;+ edit() : void&#10;+ editListeObjetsPresents() : void&#10;+ editEspecesVivant() : void&#10;+ editAnimauxOccupant() : void&#10;+ editOccupation() : void&#10;+ addForm() : void&#10;+ addDB() : void&#10;+ editForm() : void&#10;+ editDB() : void&#10;+ delDB() : void&#10;" style="text;strokeColor=none;fillColor=none;align=left;verticalAlign=top;spacingLeft=4;spacingRight=4;overflow=hidden;rotatable=0;points=[[0,0.5],[1,0.5]];portConstraint=eastwest;whiteSpace=wrap;" vertex="1" parent="87">
                    <mxGeometry y="34" width="240" height="246" as="geometry"/>
                </mxCell>
                <mxCell id="90" value="Menus" style="swimlane;fontStyle=1;align=center;verticalAlign=top;childLayout=stackLayout;horizontal=1;startSize=26;horizontalStack=0;resizeParent=1;resizeParentMax=0;resizeLast=0;collapsible=1;marginBottom=0;" vertex="1" parent="1">
                    <mxGeometry x="560" y="360" width="240" height="280" as="geometry">
                        <mxRectangle x="240" width="80" height="26" as="alternateBounds"/>
                    </mxGeometry>
                </mxCell>
                <mxCell id="91" value="" style="line;strokeWidth=1;fillColor=none;align=left;verticalAlign=middle;spacingTop=-1;spacingLeft=3;spacingRight=3;rotatable=0;labelPosition=right;points=[];portConstraint=eastwest;" vertex="1" parent="90">
                    <mxGeometry y="26" width="240" height="8" as="geometry"/>
                </mxCell>
                <mxCell id="92" value="+ __construct() : void&#10;+ display() : void&#10;+ displayListRepas() : void&#10;+ edit() : void&#10;+ editListRepas() : void&#10;+ addForm() : void&#10;+ addFormListRepas() : void&#10;+ addDB() : void&#10;+ addDBRepas() : void&#10;+ editForm() : void&#10;+ editFormListRepas() : void&#10;+ editDB() : void&#10;+ editDBRepas() : void&#10;+ delDB() : void&#10;" style="text;strokeColor=none;fillColor=none;align=left;verticalAlign=top;spacingLeft=4;spacingRight=4;overflow=hidden;rotatable=0;points=[[0,0.5],[1,0.5]];portConstraint=eastwest;whiteSpace=wrap;" vertex="1" parent="90">
                    <mxGeometry y="34" width="240" height="246" as="geometry"/>
                </mxCell>
                <mxCell id="93" value="Objet" style="swimlane;fontStyle=1;align=center;verticalAlign=top;childLayout=stackLayout;horizontal=1;startSize=26;horizontalStack=0;resizeParent=1;resizeParentMax=0;resizeLast=0;collapsible=1;marginBottom=0;" vertex="1" parent="1">
                    <mxGeometry x="280" y="680" width="240" height="280" as="geometry">
                        <mxRectangle x="240" width="80" height="26" as="alternateBounds"/>
                    </mxGeometry>
                </mxCell>
                <mxCell id="94" value="" style="line;strokeWidth=1;fillColor=none;align=left;verticalAlign=middle;spacingTop=-1;spacingLeft=3;spacingRight=3;rotatable=0;labelPosition=right;points=[];portConstraint=eastwest;" vertex="1" parent="93">
                    <mxGeometry y="26" width="240" height="8" as="geometry"/>
                </mxCell>
                <mxCell id="95" value="+ __construct() : void&#10;+ display() : void&#10;+ displayListeEnclosObjet() : void&#10;+ edit() : void&#10;+ editListeEnclosObjet() : void&#10;+ addForm() : void&#10;+ addFormListeEnclosObjet() : void&#10;+ addDB() : void&#10;+ addDBListeEnclosObjet() : void&#10;+ editForm() : void&#10;+ editFormListeEnclosObjet() : void&#10;+ editDB() : void&#10;+ editDBListeEnclosObjet() : void&#10;+ delDB() : void&#10;+ delDBListeEnclosObjet() : void&#10;" style="text;strokeColor=none;fillColor=none;align=left;verticalAlign=top;spacingLeft=4;spacingRight=4;overflow=hidden;rotatable=0;points=[[0,0.5],[1,0.5]];portConstraint=eastwest;whiteSpace=wrap;" vertex="1" parent="93">
                    <mxGeometry y="34" width="240" height="246" as="geometry"/>
                </mxCell>
            </root>
        </mxGraphModel>
    </diagram>
</mxfile>